<svg xmlns="http://www.w3.org/2000/svg" viewBox="0 0 170.78 227.68">
  <title>Asset 1</title>
  <g id="Layer_2" data-name="Layer 2">
    <g id="Layer_1-2" data-name="Layer 1">
      <g>
        <polyline id="_1" data-name="1" points="0.38 170.31 28.66 198.59 0.38 226.88" fill="none" stroke="#1a1a1a" stroke-miterlimit="10"/>
        <polyline id="_3" data-name="3" points="0.42 113.82 56.99 170.36 28.71 198.64" fill="none" stroke="#1a1a1a" stroke-miterlimit="10"/>
        <polyline id="_2" data-name="2" points="57.02 226.97 28.69 198.64 56.98 170.36 113.54 226.93" fill="none" stroke="#1a1a1a" stroke-miterlimit="10"/>
        <rect id="_2-2" data-name="2" x="79.33" y="144.55" width="40" height="80" stroke-miterlimit="10" fill="none" stroke="#1a1a1a" transform="translate(-101.4 124.29) rotate(-45)"/>
        <polyline id="_3-2" data-name="3" points="0.35 57.27 85.21 142.12 56.92 170.41" fill="none" stroke="#1a1a1a" stroke-miterlimit="10"/>
        <polyline points="113.52 226.92 113.52 170.42 56.92 170.42 56.92 113.82 0.42 113.82" fill="none" stroke="#0a0a0e" stroke-miterlimit="10" stroke-width="0.5"/>
        <line id="_5" data-name="5" x1="113.48" y1="226.97" x2="141.76" y2="198.69" fill="none" stroke="#1a1a1a" stroke-miterlimit="10"/>
        <line x1="113.52" y1="226.92" x2="170.12" y2="226.92" fill="none" stroke="#0a0a0e" stroke-miterlimit="10" stroke-width="0.5"/>
        <rect id="_2-3" data-name="2" x="107.62" y="116.24" width="40" height="80" stroke-miterlimit="10" fill="none" stroke="#1a1a1a" transform="translate(-73.1 136) rotate(-45)"/>
        <polyline id="_1-2" data-name="1" points="170.07 226.88 141.79 198.6 170.07 170.31" fill="none" stroke="#1a1a1a" stroke-miterlimit="10"/>
        <line x1="56.92" y1="57.22" x2="56.92" y2="113.82" fill="none" stroke="#0a0a0e" stroke-miterlimit="10" stroke-width="0.5"/>
        <line x1="113.52" y1="113.82" x2="113.52" y2="170.42" fill="none" stroke="#0a0a0e" stroke-miterlimit="10" stroke-width="0.5"/>
        <line x1="170.12" y1="170.42" x2="170.12" y2="226.92" fill="none" stroke="#0a0a0e" stroke-miterlimit="10" stroke-width="0.5"/>
        <polyline id="_2-4" data-name="2" points="56.92 0.62 85.24 28.94 56.96 57.23 0.39 0.66" fill="none" stroke="#1a1a1a" stroke-miterlimit="10"/>
        <rect id="_2-5" data-name="2" x="79.36" y="31.44" width="40" height="80" stroke-miterlimit="10" fill="none" stroke="#1a1a1a" transform="translate(-21.41 91.18) rotate(-45)"/>
        <polyline id="_3-3" data-name="3" points="170.04 170.38 113.56 113.79 141.84 85.51 170.12 113.82" fill="none" stroke="#1a1a1a" stroke-miterlimit="10"/>
        <polyline points="56.92 57.22 113.52 57.22 113.52 113.82 170.12 113.82 170.12 170.42" fill="none" stroke="#0a0a0e" stroke-miterlimit="10" stroke-width="0.5"/>
        <rect id="_2-6" data-name="2" x="107.64" y="3.13" width="40" height="80" stroke-miterlimit="10" fill="none" stroke="#1a1a1a" transform="translate(6.89 102.89) rotate(-45)"/>
        <line id="_3-4" data-name="3" x1="141.77" y1="85.56" x2="170.05" y2="57.28" fill="none" stroke="#1a1a1a" stroke-miterlimit="10"/>
        <line x1="113.52" y1="0.62" x2="113.52" y2="57.22" fill="none" stroke="#0a0a0e" stroke-miterlimit="10" stroke-width="0.5"/>
        <line x1="170.12" y1="113.82" x2="170.12" y2="57.22" fill="none" stroke="#0a0a0e" stroke-miterlimit="10" stroke-width="0.5"/>
        <line x1="170.12" y1="0.62" x2="170.12" y2="57.22" fill="none" stroke="#0a0a0e" stroke-miterlimit="10" stroke-width="0.5"/>
      </g>
    </g>
  </g>
</svg>
