<svg xmlns="http://www.w3.org/2000/svg" viewBox="0 0 43.82 56.66">
  <title>LOGO</title>
  <g id="Layer_2" data-name="Layer 2">
    <g id="WMF_objects" data-name="WMF objects">
      <g id="LOGO">
        <polygon points="40.45 56.21 40.37 56.07 40.28 55.93 43.03 54.14 43.12 54.28 43.2 54.42 40.45 56.21" fill="#fff" fill-rule="evenodd"/>
        <polygon points="36.54 56.21 36.45 56.07 36.37 55.93 41.05 53.04 41.13 53.18 41.22 53.32 36.54 56.21" fill="#fff" fill-rule="evenodd"/>
        <polygon points="32.34 56.21 32.26 56.07 32.17 55.93 38.81 51.82 38.89 51.96 38.98 52.1 32.34 56.21" fill="#fff" fill-rule="evenodd"/>
        <polygon points="27.7 56.3 27.61 56.15 27.52 56.01 36.31 50.51 36.4 50.66 36.48 50.8 27.7 56.3" fill="#fff" fill-rule="evenodd"/>
        <polygon points="22.9 56.32 22.82 56.18 22.73 56.04 33.76 49.24 33.85 49.38 33.93 49.52 22.9 56.32" fill="#fff" fill-rule="evenodd"/>
        <polygon points="18.37 56.61 18.28 56.47 18.2 56.32 31.66 47.99 31.75 48.13 31.83 48.27 18.37 56.61" fill="#fff" fill-rule="evenodd"/>
        <polygon points="13.97 56.61 13.89 56.47 13.8 56.32 29.25 46.77 29.34 46.91 29.42 47.05 13.97 56.61" fill="#fff" fill-rule="evenodd"/>
        <polygon points="9.3 56.61 9.21 56.47 9.13 56.32 26.73 45.44 26.82 45.58 26.9 45.72 9.3 56.61" fill="#fff" fill-rule="evenodd"/>
        <polygon points="4.62 56.66 4.54 56.52 4.45 56.38 24.15 44.16 24.24 44.3 24.32 44.45 4.62 56.66" fill="#fff" fill-rule="evenodd"/>
        <polygon points="2.83 3.52 2.75 3.37 2.67 3.23 7.23 0.4 7.31 0.54 7.4 0.68 2.83 3.52" fill="#fff" fill-rule="evenodd"/>
        <polygon points="0.17 7.88 0.09 7.74 0 7.6 12.19 0.06 12.27 0.2 12.36 0.34 0.17 7.88" fill="#fff" fill-rule="evenodd"/>
        <polygon points="0.17 10.77 0.09 10.63 0 10.49 15.68 0.77 15.76 0.91 15.85 1.05 0.17 10.77" fill="#fff" fill-rule="evenodd"/>
        <polygon points="0.17 13.75 0.09 13.61 0 13.46 18.14 2.21 18.23 2.35 18.31 2.49 0.17 13.75" fill="#fff" fill-rule="evenodd"/>
        <polygon points="0.28 17.18 0.2 17.04 0.11 16.89 20.07 4.54 20.16 4.68 20.24 4.82 0.28 17.18" fill="#fff" fill-rule="evenodd"/>
        <polygon points="0.17 20.58 0.09 20.44 0 20.3 21.29 7.09 21.37 7.23 21.46 7.37 0.17 20.58" fill="#fff" fill-rule="evenodd"/>
        <polygon points="0.17 24.07 0.09 23.92 0 23.78 21.88 10.2 21.97 10.35 22.05 10.49 0.17 24.07" fill="#fff" fill-rule="evenodd"/>
        <polygon points="0.17 27.75 0.09 27.61 0 27.47 21.88 13.89 21.97 14.03 22.05 14.17 0.17 27.75" fill="#fff" fill-rule="evenodd"/>
        <polygon points="0.17 31.49 0.09 31.35 0 31.21 21.88 17.63 21.97 17.77 22.05 17.91 0.17 31.49" fill="#fff" fill-rule="evenodd"/>
        <polygon points="0.17 35.01 0.09 34.87 0 34.72 21.88 21.15 21.97 21.29 22.05 21.43 0.17 35.01" fill="#fff" fill-rule="evenodd"/>
        <polygon points="0.17 38.44 0.09 38.3 0 38.15 21.88 24.58 21.97 24.72 22.05 24.86 0.17 38.44" fill="#fff" fill-rule="evenodd"/>
        <polygon points="0.17 42.18 0.09 42.04 0 41.9 21.88 28.32 21.97 28.46 22.05 28.6 0.17 42.18" fill="#fff" fill-rule="evenodd"/>
        <polygon points="0.17 45.69 0.09 45.55 0 45.41 21.88 31.83 21.97 31.97 22.05 32.12 0.17 45.69" fill="#fff" fill-rule="evenodd"/>
        <polygon points="0.17 49.35 0.09 49.21 0 49.07 21.88 35.49 21.97 35.63 22.05 35.77 0.17 49.35" fill="#fff" fill-rule="evenodd"/>
        <polygon points="0.17 53.12 0.09 52.98 0 52.84 21.88 39.26 21.97 39.4 22.05 39.54 0.17 53.12" fill="#fff" fill-rule="evenodd"/>
        <polygon points="0.17 56.61 0.09 56.47 0 56.32 21.88 42.75 21.97 42.89 22.05 43.03 0.17 56.61" fill="#fff" fill-rule="evenodd"/>
        <polygon points="31.78 0.14 33.79 0.14 34.78 0.2 35.77 0.34 36.71 0.59 37.62 0.91 38.47 1.33 39.29 1.81 40.05 2.38 40.76 3.03 41.39 3.74 41.95 4.48 42.46 5.3 42.86 6.15 43.2 7.06 43.45 7.99 43.6 8.98 43.65 9.98 43.65 54.54 21.94 42.89 21.94 9.98 22 8.98 22.14 7.99 22.39 7.06 22.71 6.15 23.13 5.3 23.61 4.48 24.18 3.74 24.83 3.03 25.54 2.38 26.28 1.81 27.1 1.33 27.95 0.91 28.86 0.59 29.79 0.34 30.78 0.2 31.78 0.14" fill="#fff" fill-rule="evenodd"/>
        <polygon points="31.78 0.31 31.78 0.14 31.78 0 33.79 0 33.79 0.14 33.79 0.31 31.78 0.31" fill="#fff" fill-rule="evenodd"/>
        <polygon points="33.79 0.14 33.79 0 34.81 0.06 35.8 0.2 36.77 0.42 37.67 0.77 37.62 0.91 37.56 1.05 36.68 0.74 35.74 0.51 34.78 0.37 33.79 0.31 33.79 0.14" fill="#fff" fill-rule="evenodd"/>
        <polygon points="37.62 0.91 37.67 0.77 38.55 1.19 39.37 1.7 40.14 2.27 40.88 2.92 40.76 3.03 40.65 3.15 39.97 2.52 39.2 1.96 38.41 1.47 37.56 1.05 37.62 0.91" fill="#fff" fill-rule="evenodd"/>
        <polygon points="40.76 3.03 40.88 2.92 41.53 3.63 42.09 4.39 42.6 5.21 43.03 6.09 42.86 6.15 42.72 6.21 42.32 5.38 41.84 4.59 41.27 3.83 40.65 3.15 40.76 3.03" fill="#fff" fill-rule="evenodd"/>
        <polygon points="42.86 6.15 43.03 6.09 43.37 7 43.63 7.96 43.77 8.96 43.82 9.98 43.65 9.98 43.51 9.98 43.45 8.98 43.31 8.02 43.06 7.09 42.72 6.21 42.86 6.15" fill="#fff" fill-rule="evenodd"/>
        <polygon points="43.51 9.98 43.65 9.98 43.82 9.98 43.82 54.54 43.65 54.54 43.51 54.54 43.51 9.98" fill="#fff" fill-rule="evenodd"/>
        <polygon points="43.57 54.68 43.65 54.54 43.82 54.54 43.82 54.79 43.57 54.68" fill="#fff" fill-rule="evenodd"/>
        <polygon points="43.74 54.4 43.65 54.54 43.57 54.68 21.86 43.03 21.94 42.89 22.02 42.75 43.74 54.4" fill="#fff" fill-rule="evenodd"/>
        <polygon points="21.8 42.89 21.94 42.89 21.86 43.03 21.8 42.97 21.8 42.89" fill="#fff" fill-rule="evenodd"/>
        <polygon points="22.11 42.89 21.94 42.89 21.8 42.89 21.8 9.98 21.94 9.98 22.11 9.98 22.11 42.89" fill="#fff" fill-rule="evenodd"/>
        <polygon points="21.94 9.98 21.8 9.98 21.86 8.96 22 7.96 22.22 7 22.56 6.09 22.71 6.15 22.85 6.21 22.54 7.09 22.31 8.02 22.17 8.98 22.11 9.98 21.94 9.98" fill="#fff" fill-rule="evenodd"/>
        <polygon points="22.71 6.15 22.56 6.09 22.99 5.21 23.5 4.39 24.07 3.63 24.72 2.92 24.83 3.03 24.95 3.15 24.32 3.83 23.75 4.59 23.27 5.38 22.85 6.21 22.71 6.15" fill="#fff" fill-rule="evenodd"/>
        <polygon points="24.83 3.03 24.72 2.92 25.43 2.27 26.19 1.7 27.01 1.19 27.89 0.77 27.95 0.91 28.01 1.05 27.18 1.47 26.39 1.96 25.63 2.52 24.95 3.15 24.83 3.03" fill="#fff" fill-rule="evenodd"/>
        <polygon points="27.95 0.91 27.89 0.77 28.8 0.42 29.76 0.2 30.76 0.06 31.78 0 31.78 0.14 31.78 0.31 30.78 0.37 29.82 0.51 28.89 0.74 28.01 1.05 27.95 0.91" fill="#fff" fill-rule="evenodd"/>
      </g>
    </g>
  </g>
</svg>
