<svg xmlns="http://www.w3.org/2000/svg"  version="1.1" viewBox="0 0 30 30">
  <g fill="none" fill-rule="evenodd" stroke="none" stroke-width="1" class="Icons/30px/Dancing">
    <g fill="#F5F4EA" fill-rule="nonzero" class="dance">
      <path d="M18.690403,21.9009011 C18.7759912,23.2323716 17.700403,25.0111952 17.3483442,26.9267834 C17.2945206,27.2144305 16.6318736,26.9903128 16.5948148,27.3035481 C16.5577559,27.6159011 17.1118736,28.6235481 17.145403,28.9076658 C17.1789324,29.1953128 16.3071677,29.0938422 16.3071677,29.0938422 L16.1721677,29.3117834 L15.8033442,29.3117834 L15.5668736,28.6067834 C15.5668736,28.6067834 13.8206971,28.4056069 13.7527559,28.7073716 C13.6848148,29.0091364 13.5012854,28.7744305 12.5774618,29.3117834 C11.6536383,29.8491364 8.29452065,29.6814893 7.00099123,29.5835481 C6.38952065,29.533254 5.44805006,29.0903128 4.85069712,28.9764893 C4.18628535,28.8520775 3.89157947,29.0603128 3.77687359,29.0788422 C3.55805006,29.1123716 3.04981476,28.8035481 2.93687359,28.5397246 C2.82393241,28.2776658 2.01128535,26.5050187 2.46657947,26.3241364 C2.92099123,26.143254 4.515403,25.5335481 4.58246182,25.3156069 C4.650403,25.0959011 4.11481476,23.7600187 3.71952065,23.6656069 C3.32334417,23.5694305 2.67569712,22.9359011 2.41628535,22.7629599 C2.16481476,22.5953128 2.45863829,22.2167834 2.39952065,21.838254 C2.33687359,21.4394305 2.05805006,21.1147246 2.33334417,21.0150187 C2.86805006,20.8173716 4.03981476,20.3867834 5.80981476,19.753254 C6.42657947,19.5335481 7.50657947,19.7214893 8.04305006,19.5185481 C8.60687359,19.3067834 8.61393241,18.7067834 8.715403,18.5109011 C9.05069712,17.8561952 8.69863829,17.5014893 8.89981476,16.7285481 C9.1671677,15.7050187 10.1192265,14.8976658 10.1951089,13.9491364 C10.245403,13.3279599 8.865403,11.1361952 8.24422653,10.9014893 C7.95481476,10.7920775 6.88981476,10.8361952 5.96069712,10.783254 C4.89746182,10.7223716 3.96569712,10.5688422 3.77775594,10.5388422 C3.42393241,10.4823716 1.55157947,9.223254 1.55157947,9.223254 C1.55157947,9.223254 1.61952065,9.8100187 1.38393241,9.99531282 C1.14834417,10.1797246 1.22510888,9.26119517 1.05746182,9.48707753 C0.889814763,9.71119517 0.88893241,9.69354811 0.770697116,9.87090106 C0.653344175,10.0464893 0.939226527,10.7770775 0.813050057,10.8953128 C0.686873586,11.0117834 0.634814763,10.6217834 0.634814763,10.6217834 C0.634814763,10.6217834 0.561579469,10.9535481 0.46010888,10.8106069 C0.359520645,10.6676658 0.284520645,9.98295988 0.284520645,9.98295988 C0.284520645,9.98295988 0.115991233,10.5917834 0.0242265275,10.423254 C-0.0684205313,10.2573716 0.134520645,9.81884223 0.134520645,9.81884223 C0.134520645,9.81884223 0.923344175,8.35148929 1.35922653,8.34178341 C1.79687359,8.33119517 3.76187359,9.49060694 5.27334417,9.52413635 C6.78569712,9.55854811 6.71775594,9.22237164 8.4471677,9.15443047 C8.12863829,8.86943047 8.12775594,8.56413635 8.14452065,8.24737164 C8.1621677,7.93060694 7.62481476,7.65354811 7.60805006,6.63266576 C7.59128535,5.61178341 9.060403,5.28354811 9.585403,5.28795988 C10.110403,5.29237164 10.4889324,5.53943047 10.6309912,5.81472459 C10.8330501,6.19943047 11.1180501,6.24972459 11.3536383,6.30090106 C11.5256971,6.33707753 11.2195206,6.63619517 11.2195206,6.63619517 L11.655403,7.29090106 C11.655403,7.29090106 11.7815795,7.53443047 11.4956971,7.66148929 C11.2106971,7.78678341 10.7465795,7.87678341 10.6424618,7.90766576 C10.5374618,7.93854811 10.4792265,8.23237164 10.6706971,8.45031282 C10.7951089,8.593254 11.3359912,9.33178341 11.6051089,8.98766576 C11.6924618,8.87648929 11.8574618,8.488254 12.0374618,7.99413635 C12.1618736,7.65884223 12.435403,7.318254 12.5527559,6.93795988 C12.7945206,6.16590106 12.840403,5.37443047 12.8148148,5.11678341 C12.7768736,4.76560694 12.2686383,3.01148929 11.6712854,2.11854811 C11.4692265,1.81678341 10.5498148,1.80178341 10.4739324,1.80531282 C10.2780501,1.813254 9.70452065,1.86266576 9.68069712,1.66854811 C9.65687359,1.47178341 10.4192265,1.5150187 10.515403,1.4550187 C10.6115795,1.3950187 10.2612854,0.958253997 10.2612854,0.958253997 C10.2612854,0.958253997 9.83687359,1.03413635 9.79275594,0.913253997 C9.74952065,0.793253997 10.1201089,0.691783409 10.1201089,0.691783409 C10.1201089,0.691783409 9.64805006,0.221489291 9.690403,0.0282539971 C9.73275594,-0.16586365 10.3830501,0.701489291 10.6477559,0.767665762 C10.9918736,0.852371644 11.6959912,0.902665762 12.0656971,1.33854811 C13.0627559,2.51648929 14.0112854,4.51237164 14.0483442,4.90766576 C14.0774618,5.23060694 13.9556971,6.24178341 13.8374618,7.37648929 C13.7156971,8.56060694 13.2171677,9.32648929 13.2330501,9.87884223 C13.2401089,10.1320775 13.4165795,10.3164893 13.6195206,10.6853128 C13.9045206,11.2059011 13.3168736,11.5085481 13.2674618,13.9959011 C13.2462854,15.0723716 13.5374618,16.7417834 13.5374618,16.7417834 C13.5374618,16.7417834 14.1074618,15.8761952 14.6615795,15.8920775 C15.2156971,15.9097246 15.3498148,15.6079599 16.2065795,15.0361952 C17.0642265,14.4644305 16.8109912,13.6650187 17.0465795,13.2053128 C17.2812854,12.7456069 17.8698148,11.4238422 18.3224618,11.6929599 C18.7768736,11.9611952 20.0527559,13.5414893 20.220403,15.3547246 C20.3880501,17.1697246 19.500403,17.083254 19.5833442,18.0829599 C19.665403,19.0835481 18.6074618,20.5676658 18.690403,21.9009011 Z" class="Path" transform="translate(5)"/>
    </g>
  </g>
</svg>
