<svg xmlns="http://www.w3.org/2000/svg" version="1.1" viewBox="0 0 24 24">
  <g fill="none" fill-rule="evenodd" stroke="none" stroke-width="1" class="Icons/24px/Instagram">
    <path fill="#F5F4EA" d="M12.5,9 C10.5727682,9 9,10.5727682 9,12.5 C9,14.4272318 10.5727682,16 12.5,16 C14.4272318,16 16,14.4272318 16,12.5 C16,10.5727682 14.4272318,9 12.5,9 Z M22.9988277,12.5 C22.9988277,11.0500203 23.0119614,9.61317455 22.9305329,8.16582166 C22.8491044,6.48468582 22.4656024,4.99267776 21.2362947,3.76334717 C20.0043603,2.53138981 18.5150067,2.15050747 16.8339022,2.06907746 C15.3839495,1.98764744 13.9471305,2.00078131 12.4998045,2.00078131 C11.0498519,2.00078131 9.61303281,1.98764744 8.16570687,2.06907746 C6.48460232,2.15050747 4.99262204,2.53401659 3.76331434,3.76334717 C2.53137992,4.99530453 2.15050467,6.48468582 2.06907617,8.16582166 C1.98764767,9.61580132 2.0007813,11.0526471 2.0007813,12.5 C2.0007813,13.9473529 1.98764767,15.3868255 2.06907617,16.8341783 C2.15050467,18.5153142 2.53400665,20.0073222 3.76331434,21.2366528 C4.99524877,22.4686102 6.48460232,22.8494925 8.16570687,22.9309225 C9.61565954,23.0123526 11.0524786,22.9992187 12.4998045,22.9992187 C13.9497572,22.9992187 15.3865762,23.0123526 16.8339022,22.9309225 C18.5150067,22.8494925 20.006987,22.4659834 21.2362947,21.2366528 C22.4682291,20.0046955 22.8491044,18.5153142 22.9305329,16.8341783 C23.0145881,15.3868255 22.9988277,13.9499797 22.9988277,12.5 Z M12.5,18 C9.45636275,18 7,15.5436373 7,12.5 C7,9.45636275 9.45636275,7 12.5,7 C15.5436373,7 18,9.45636275 18,12.5 C18,15.5436373 15.5436373,18 12.5,18 Z M18.4999994,7.99999882 C17.6701459,7.99999882 17,7.32985294 17,6.49999941 C17,5.67014587 17.6701459,5 18.4999994,5 C19.3298529,5 19.9999988,5.67014587 19.9999988,6.49999941 C20.0004983,6.89797689 19.8426235,7.27979787 19.5612107,7.56121066 C19.2797979,7.84262346 18.8979769,8.00049827 18.4999994,7.99999882 L18.4999994,7.99999882 Z" class="instagram"/>
  </g>
</svg>
