<svg xmlns="http://www.w3.org/2000/svg" version="1.1" viewBox="0 0 30 30">
  <g fill="none" fill-rule="evenodd" stroke="none" stroke-width="1" class="Icons/30px/Laser/Alternative">
    <path fill="#F5F4EA" fill-rule="nonzero" d="M29.4663245,14.5337289 L11.8351182,14.5337289 L10.0482344,14.5337289 L14.8592796,11.7570269 C15.1128418,11.6110244 15.2004602,11.285837 15.053102,11.0323235 C14.908399,10.7801374 14.583149,10.6912086 14.3282591,10.8385384 L9.51721391,13.6152405 L11.4554385,10.2585103 C11.6027967,10.0049969 11.5151783,9.67980949 11.2616161,9.533807 C11.0080538,9.38514991 10.6828038,9.47275141 10.5367732,9.72626483 L8.59722099,13.0843223 L8.59722099,7.53091818 C8.59722099,7.23758588 8.35958934,7 8.06620055,7 C7.77281175,7 7.5351801,7.23758588 7.5351801,7.53091818 L7.5351801,13.0843223 L4.75794318,8.27420362 C4.61191256,8.02201749 4.28666254,7.93441599 4.03310027,8.08041849 C3.77953801,8.22642099 3.69191964,8.55160837 3.83927781,8.8051218 L6.61651474,13.6139132 L3.54987167,11.8433011 C3.29498186,11.6972986 2.96973183,11.7849001 2.82502876,12.0384135 C2.67767059,12.2919269 2.76528896,12.6171143 3.01885123,12.7631168 L6.08549429,14.5337289 L0.531020444,14.5337289 C0.237631649,14.5337289 0,14.7713148 0,15.0646471 C0,15.3579794 0.237631649,15.5955653 0.531020444,15.5955653 L6.08549429,15.5955653 L2.25949199,17.8041849 C2.00592973,17.9501874 1.91831135,18.2753748 2.06566953,18.5302155 C2.16390831,18.7001093 2.34180016,18.7956746 2.52632976,18.7956746 C2.61660324,18.7956746 2.70820427,18.7717833 2.79183999,18.7240006 L6.6390831,16.5021081 L2.82502876,23.20495 C2.68032569,23.4597908 2.76927162,23.7849781 3.02416143,23.9296533 C3.10779715,23.9761087 3.19674307,24 3.285689,24 C3.4702186,24 3.649438,23.9031074 3.74767679,23.7318863 L7.53783521,17.0715178 L7.53783521,22.0210025 C7.53783521,22.3143348 7.77546686,22.5519207 8.06885565,22.5519207 C8.36224445,22.5519207 8.5998761,22.3130075 8.5998761,22.0210025 L8.5998761,16.9480793 L10.546066,20.1242973 C10.6469599,20.2875547 10.8208691,20.3778107 11.0000885,20.3778107 C11.0943446,20.3778107 11.1899283,20.3512648 11.2762191,20.298173 C11.5257987,20.145534 11.6054518,19.8190194 11.4514559,19.5681605 L9.61279759,16.5684728 L14.3282591,19.2907558 C14.4118949,19.3385384 14.5034959,19.3624297 14.5937694,19.3624297 C14.7769714,19.3624297 14.9561908,19.2668645 15.0544296,19.0969706 C15.2017878,18.8434572 15.1141694,18.5169425 14.8606071,18.37094 L10.0495619,15.594238 L11.8364457,15.594238 L29.4689796,15.594238 C29.7623684,15.594238 30,15.3566521 30,15.0633198 C30,14.7699875 29.7597132,14.5337289 29.4663245,14.5337289 Z" class="laser-alt" transform="rotate(90 15 15.5)"/>
  </g>
</svg>
