<svg xmlns="http://www.w3.org/2000/svg" xmlns:xlink="http://www.w3.org/1999/xlink" version="1.1" viewBox="0 0 30 30">
  <defs>
    <polygon points=".3 .1 7.7 .1 7.7 7.3 .3 7.3" class="path-1"/>
    <polygon points=".3 0 .7 0 .7 .3 .3 .3" class="path-3"/>
  </defs>
  <g fill="none" fill-rule="evenodd" stroke="none" stroke-width="1" class="Icons/30px/Laser/Default">
    <g class="laser">
      <path fill="#F5F4EA" d="M6.74157303e-05,9.22643973 C0.412988764,8.67164063 0.77905618,8.16237723 1.16501124,7.66918527 C1.31366292,7.47934152 1.34804494,7.31527902 1.26175281,7.08358259 C1.04029213,6.48760045 0.848831461,5.88123884 0.621303371,5.20858259 C1.26849438,5.41918527 1.84658427,5.58090402 2.40175281,5.79887277 C2.724,5.92543527 2.9451236,5.86717634 3.20096629,5.6602567 C3.66546067,5.28425223 4.15793258,4.94239955 4.68377528,4.55266741 C4.68377528,5.25813616 4.6928764,5.89396205 4.67905618,6.52978795 C4.67366292,6.76751116 4.74040449,6.92253348 4.94804494,7.0588058 C5.47388764,7.40467634 5.98186517,7.77699777 6.57411236,8.19284598 C5.94950562,8.39239955 5.40242697,8.59262277 4.84119101,8.73726562 C4.4734382,8.83202009 4.28231461,9.0041183 4.19433708,9.38447545 C4.06692135,9.93760045 3.86332584,10.4729799 3.66310112,11.108471 C3.24849438,10.5288951 2.87332584,10.030346 2.52883146,9.51204241 C2.3751236,9.2806808 2.19883146,9.21170759 1.9298427,9.22007813 C1.31231461,9.23983259 0.693775281,9.22643973 6.74157303e-05,9.22643973" class="Fill-1" transform="translate(0 1)"/>
      <path fill="#F5F4EA" d="M9.56716854,0.0266852679 C10.0400899,0.558046875 10.4671685,1.01976562 10.8713258,1.5005692 C11.0466067,1.70916295 11.2188539,1.77210937 11.4955955,1.72657366 C12.1036854,1.62646205 12.7198652,1.57422991 13.4277303,1.49152902 C13.0758202,2.08483259 12.7805393,2.61719866 12.4495281,3.1271317 C12.2840225,3.38226562 12.2742472,3.59353795 12.410764,3.86139509 C12.6834607,4.39510045 12.9251461,4.94454241 13.2224494,5.57902902 C12.5614382,5.43773437 11.9840225,5.3396317 11.4227865,5.18527902 C11.0816629,5.0911942 10.8480674,5.15079241 10.6009888,5.40190848 C10.190764,5.81876116 9.74278652,6.1991183 9.24155056,6.65815848 C9.18357303,6.07690848 9.10267416,5.57902902 9.09323596,5.08014509 C9.08379775,4.5819308 8.94188764,4.23773437 8.44132584,4.02646205 C7.94986517,3.81920759 7.49851685,3.5178683 6.97806742,3.22925223 C7.62222472,2.94800223 8.21851685,2.67646205 8.82458427,2.42835937 C9.03357303,2.34297991 9.14008989,2.2365067 9.17885393,2.0038058 C9.28368539,1.37333705 9.4225618,0.748560268 9.56716854,0.0266852679" class="Fill-3" transform="translate(0 1)"/>
      <path fill="#F5F4EA" d="M16.0746742,1.48875 C16.8031011,1.56542411 17.4448989,1.62167411 18.0829888,1.70705357 C18.3138876,1.73785714 18.4608539,1.67357143 18.6051236,1.50415179 C19.0193933,1.01698661 19.4461348,0.540535714 19.9210787,0.000133928571 C20.0673708,0.706607143 20.2099551,1.329375 20.3188315,1.95783482 C20.3586067,2.18651786 20.4580449,2.30705357 20.6673708,2.39176339 C21.2741124,2.63685268 21.8744494,2.89868304 22.5344494,3.17825893 C21.9189438,3.52546875 21.3529888,3.85627232 20.775236,4.16497768 C20.5760225,4.27178571 20.4866966,4.39165179 20.4725393,4.62535714 C20.4341124,5.26252232 20.3599551,5.89801339 20.2922022,6.62055804 C19.8270337,6.20169643 19.3851236,5.84243304 18.992764,5.43629464 C18.7102921,5.14399554 18.4429888,5.05325893 18.0428764,5.17412946 C17.5072584,5.33618304 16.9510787,5.42959821 16.305573,5.57457589 C16.5964719,4.93372768 16.836809,4.36386161 17.1138876,3.81241071 C17.2365843,3.56866071 17.2328764,3.38685268 17.0835506,3.15683036 C16.7498427,2.64220982 16.446809,2.10850446 16.0746742,1.48875" class="Fill-5" transform="translate(0 1)"/>
      <g class="Group-9" transform="translate(22.247 5.072)">
        <mask fill="#fff" class="mask-2">
          <use xlink:href="#path-1"/>
        </mask>
        <path fill="#FFF" d="M6.21448315,1.41686384 C5.76886517,1.56385045 5.3168427,1.69543527 4.87931461,1.8631808 C4.56111236,1.9850558 4.31133708,1.97635045 4.03459551,1.73929687 C3.65504494,1.41385045 3.22998876,1.14097098 2.78942697,0.820212054 C2.78942697,1.43126116 2.76482022,1.97902902 2.7998764,2.52277902 C2.81673034,2.78126116 2.721,2.90748884 2.52852809,3.03706473 C2.08729213,3.33472098 1.65751685,3.64945313 1.15998876,4.00202009 C1.76369663,4.18885045 2.2821236,4.36128348 2.80830337,4.50626116 C3.03144944,4.56753348 3.13762921,4.68103795 3.19998876,4.90034598 C3.34762921,5.41998884 3.52493258,5.93126116 3.71504494,6.52422991 C4.05111236,6.0491183 4.3551573,5.64632813 4.62819101,5.22344866 C4.79740449,4.96128348 4.99257303,4.85481027 5.31650562,4.86016741 C5.82819101,4.86820313 6.34425843,4.97199777 6.90111236,4.86987723 C6.53470787,4.38438616 6.20302247,3.93137277 5.85482022,3.49108259 C5.73178652,3.33572545 5.71594382,3.19577009 5.77864045,3.01597098 C5.95392135,2.51172991 6.11605618,2.00313616 6.28291011,1.49621652 C6.29032584,1.4677567 6.29740449,1.4396317 6.30482022,1.4115067 C6.27482022,1.4131808 6.24448315,1.41518973 6.21448315,1.41686384 M6.93077528,0.771328125 C6.67661798,1.5350558 6.46122472,2.21742188 6.21852809,2.89007813 C6.13493258,3.12110491 6.16493258,3.28684152 6.31257303,3.47601563 C6.75448315,4.04186384 7.17953933,4.62010045 7.6504382,5.24554688 C6.85021348,5.24554688 6.12717978,5.2569308 5.4051573,5.23918527 C5.15908989,5.23315848 5.0151573,5.31518973 4.881,5.5130692 C4.47751685,6.10771205 4.05380899,6.68896205 3.5862809,7.34789062 C3.35335955,6.6193192 3.13055056,5.97947545 2.94886517,5.32824777 C2.86021348,5.01050223 2.70650562,4.84108259 2.3768427,4.7553683 C1.7198764,4.58393973 1.07538202,4.36496652 0.331786517,4.13695313 C0.948977528,3.69800223 1.47717978,3.2928683 2.03706742,2.9366183 C2.35897753,2.73170759 2.47324719,2.50804688 2.44796629,2.1240067 C2.40448315,1.4741183 2.43583146,0.819542411 2.43583146,0.0909709821 C2.85178652,0.398337054 3.27751685,0.652131696 3.62706742,0.984274554 C4.18695506,1.51731027 4.75055056,1.6428683 5.46178652,1.28159598 C5.89392135,1.0616183 6.38504494,0.955814732 6.93077528,0.771328125" class="Fill-7" mask="url(#mask-2)"/>
      </g>
      <path fill="#F5F4EA" d="M16.2022247,27.0743304 C17.1116629,26.0012277 18.0157079,24.9237723 18.9312135,23.8560268 C21.3841348,20.994308 23.8411011,18.1362723 26.2994157,15.2792411 C26.4831236,15.065625 26.673573,14.7016741 27.0045843,14.9765625 C27.3625618,15.2732143 27.0157079,15.5246652 26.8171685,15.7392857 C23.4025618,19.4323661 19.9845843,23.122433 16.563573,26.8098214 C16.4671685,26.9139509 16.3977303,27.0582589 16.2379551,27.0947545 C16.2254831,27.0887277 16.2136854,27.0820312 16.2022247,27.0743304" class="Fill-10" transform="translate(0 1)"/>
      <path fill="#F5F4EA" d="M14.2824607,26.3330692 C13.9814494,25.2201228 13.6787528,24.107846 13.3801011,22.9938951 C12.3654944,19.2137612 11.352573,15.4326228 10.3393146,11.652154 C10.3184157,11.5744754 10.3015618,11.4961272 10.2806629,11.4187835 C10.2206629,11.1941183 10.2698764,11.0012612 10.5098764,10.9403237 C10.7687528,10.8743638 10.9052697,11.0216853 10.9618989,11.2711272 C11.2774045,12.6653237 11.5989775,14.0581808 11.9171798,15.4517076 C12.7113371,18.9288281 13.5048202,22.4059487 14.2976292,25.883404 C14.3296517,26.0236942 14.3539213,26.1653237 14.3815618,26.3066183 L14.2824607,26.3330692 Z" class="Fill-12" transform="translate(0 1)"/>
      <path fill="#F5F4EA" d="M13.3303146,26.8830469 C12.2041348,25.6783594 11.073573,24.4780246 9.95244944,23.2689844 C7.65424719,20.7913058 5.36076404,18.3092746 3.06525843,15.8289174 C2.97424719,15.7304799 2.87952809,15.6350558 2.7908764,15.5346094 C2.62840449,15.3511272 2.57008989,15.1502344 2.78244944,14.9744531 C2.97559551,14.8144085 3.16435955,14.8920871 3.31368539,15.0615067 C3.59716854,15.3836049 3.87391011,15.7113951 4.15334831,16.0371763 C7.18537079,19.5671987 10.2170562,23.097221 13.2480674,26.6282478 C13.2993034,26.6881808 13.3373933,26.7591629 13.3818876,26.8247879 C13.3623371,26.8421987 13.3451461,26.8616183 13.3303146,26.8830469" class="Fill-14" transform="translate(0 1)"/>
      <path fill="#F5F4EA" d="M15.4281573,26.1934487 C15.7736629,24.6690067 16.112764,23.1643192 16.4562472,21.660971 C17.2328764,18.2608594 18.0115281,14.8610826 18.7901798,11.4613058 C18.816809,11.3444531 18.8373708,11.2222433 18.8889438,11.1157701 C18.9684944,10.9517076 19.1188315,10.8884263 19.2947865,10.9399888 C19.4515281,10.9861942 19.5459101,11.1010379 19.5297303,11.2714621 C19.5189438,11.3899888 19.4919775,11.5081808 19.4609663,11.6236942 C18.1884944,16.3714621 16.9153483,21.1192299 15.6401798,25.8659933 C15.6084944,25.9841853 15.6317528,26.1402121 15.4281573,26.1934487" class="Fill-16" transform="translate(0 1)"/>
      <g class="Group-20" transform="translate(15.506 28.175)">
        <mask fill="#fff" class="mask-4">
          <use xlink:href="#path-3"/>
        </mask>
        <path fill="#EFA125" d="M0.615977528,0.0600669643 C0.595078652,0.190982143 0.481483146,0.234508929 0.346314607,0.334620536 C0.435977528,0.1903125 0.44305618,0.0436607143 0.620359551,0.0634151786 L0.615977528,0.0600669643 Z" class="Fill-18" mask="url(#mask-4)"/>
      </g>
      <path fill="#F5F4EA" d="M13.6461573,27.1292411 C13.6882921,27.1918527 13.730427,27.2547991 13.7725618,27.3174107 L13.7752584,27.3200893 C13.7317753,27.2547991 13.610427,27.2695312 13.6084045,27.1610491 C13.6205393,27.15 13.6333483,27.1392857 13.6461573,27.1292411" class="Fill-21" transform="translate(0 1)"/>
    </g>
  </g>
</svg>
