<svg xmlns="http://www.w3.org/2000/svg"  version="1.1" viewBox="0 0 35 34">
  <g fill="#F5F4EA" fill-rule="evenodd" stroke="none" stroke-width="1">
    <path d="M34.8235294 12.65225C34.8235294 5.663125 28.9840588 0 21.7842941 0 14.578 0 8.74070588 5.663125 8.74070588 12.65225 8.74070588 19.637125 14.5801765 25.30025 21.7842941 25.30025 28.9840588 25.30025 34.8235294 19.637125 34.8235294 12.65225zM10.7387059 12.790375C10.7421654 9.92476014 11.9120151 7.17798065 13.9906552 5.15487455 16.0692953 3.13176846 18.8862735 1.99823425 21.8212941 2.003875 24.7551602 1.99936311 27.5705718 3.13353131 29.6475788 5.15663717 31.7245859 7.17974302 32.89287 9.92588823 32.8951765 12.790375 32.8922928 15.6544934 31.723754 18.4000926 29.6468096 20.4227389 27.5698653 22.4453852 24.7547834 23.5792618 21.8212941 23.57475 15.6988824 23.57475 10.7387059 18.74675 10.7387059 12.790375L10.7387059 12.790375zM3.96552941 33.9235L0 30.05175 8.78641176 21.471C8.78641176 21.471 8.99535294 23.096625 10.0487647 24.120875 11.0978235 25.149375 12.7519412 25.344875 12.7519412 25.344875L3.96552941 33.9235 3.96552941 33.9235z"/>
    <path d="M29.1603529,10.780125 C29.1603529,11.995625 30.118,11.536625 30.118,9.84725 C30.118,6.936 27.7042941,4.57725 24.7225294,4.57725 C22.9878824,4.57725 22.5199412,5.510125 23.7670588,5.510125 C25.1980266,5.51068847 26.5701564,6.0662356 27.5815953,7.05455234 C28.5930342,8.04286908 29.1609303,9.38299765 29.1603529,10.780125 L29.1603529,10.780125 Z"/>
  </g>
</svg>
