<svg xmlns="http://www.w3.org/2000/svg"  version="1.1" viewBox="0 0 30 30">
  <g fill="none" fill-rule="evenodd" stroke="none" stroke-width="1" class="Icons/30px/Mail">
    <g fill="#F5F4EA" fill-rule="nonzero" class="mail">
      <path d="M28.8246154.0726923077L1.17538462.0726923077C.63255982.073328514.192731567.513328843.192307692 1.05615385L.192307692 3.03461538C.192307692 3.12576923.291153846 3.23038462.371923077 3.27269231L14.905 11.5738462C14.9422267 11.5951211 14.9844321 11.606137 15.0273077 11.6057692 15.0711329 11.6058905 15.1141809 11.5941984 15.1519231 11.5719231L29.2457692 3.28076923C29.325 3.23653846 29.535 3.11961538 29.6138462 3.06576923 29.7092308 3.00076923 29.8076923 2.94192308 29.8076923 2.82538462L29.8076923 1.05576923C29.8070565.513094423 29.3672902.0733281312 28.8246154.0726923077zM29.685 6.01769231C29.607991 5.97377303 29.5133814 5.97435975 29.4369231 6.01923077L21.4611538 10.7119231C21.3967737 10.7494365 21.352964 10.8142094 21.3421122 10.8879271 21.3312603 10.9616448 21.3545458 11.0362946 21.4053846 11.0907692L29.3823077 19.6896154C29.4285141 19.7398187 29.4936929 19.7682908 29.5619231 19.7680769 29.6975699 19.7678651 29.8074805 19.6579545 29.8076923 19.5223077L29.8076923 6.23115385C29.8080334 6.14314636 29.7612177 6.06169572 29.685 6.01769231L29.685 6.01769231zM19.1626923 12.2876923C19.0846701 12.2027198 18.9578869 12.1838065 18.8584615 12.2423077L15.6615385 14.1234615C15.280482 14.3436365 14.8115986 14.3467059 14.4276923 14.1315385L11.6142308 12.5242308C11.5210257 12.4711461 11.4041763 12.484527 11.3253846 12.5573077L.641538462 22.4673077C.58474582 22.5204.556372974 22.5972017.565008295 22.6744651.573643616 22.7517285.618272016 22.8203713.685384615 22.8596154.851538462 22.9573077 1.01192308 23.0038462 1.175 23.0038462L28.5415385 23.0038462C28.639438 23.0040439 28.7279954 22.9457626 28.7665385 22.8557692 28.8057669 22.7663084 28.7879161 22.6620778 28.7211538 22.5907692L19.1626923 12.2876923zM8.97461538 11.385C9.03200423 11.3319424 9.06073552 11.2547518 9.05200448 11.1770835 9.04327344 11.0994152 8.99812114 11.0305302 8.93038462 10.9915385L.558846154 6.21C.482813683 6.1668318.389555274 6.16738032.314035858 6.21143992.238516442 6.25549952.192145128 6.33641387.192307692 6.42384615L.192307692 18.97C.19175364 19.0679398.249581976 19.1567991.339355741 19.1959548.429129506 19.2351106.533597165 19.2170383.605 19.15L8.97461538 11.385 8.97461538 11.385z" class="Icon-Path" transform="translate(0 3)"/>
    </g>
  </g>
</svg>
