<svg xmlns="http://www.w3.org/2000/svg"  version="1.1" viewBox="0 0 30 30">
  <g fill="none" fill-rule="evenodd" stroke="none" stroke-width="1" >
    <g fill="#F5F4EA" fill-rule="nonzero" >
      <path d="M6.48166667,13.0841667 C8.76166667,17.565 12.435,21.2225 16.9158333,23.5183333 L20.3991667,20.035 C20.8266667,19.6075 21.46,19.465 22.0141667,19.655 C23.7875,20.2408333 25.7033333,20.5575 27.6666667,20.5575 C28.5375,20.5575 29.25,21.27 29.25,22.1408333 L29.25,27.6666667 C29.25,28.5375 28.5375,29.25 27.6666667,29.25 C12.7991667,29.25 0.75,17.2008333 0.75,2.33333333 C0.75,1.4625 1.4625,0.75 2.33333333,0.75 L7.875,0.75 C8.74583333,0.75 9.45833333,1.4625 9.45833333,2.33333333 C9.45833333,4.3125 9.775,6.2125 10.3608333,7.98583333 C10.535,8.54 10.4083333,9.1575 9.965,9.60083333 L6.48166667,13.0841667 Z" class="Icon-Path"/>
    </g>
  </g>
</svg>
