<svg class="icon__vk" xmlns="http://www.w3.org/2000/svg" version="1.1" viewBox="0 0 24 24">
  <g fill="none" fill-rule="evenodd" stroke="none" stroke-width="1" class="Icons/24px/Vk">
    <g fill="#F5F4EA" class="vk">
      <path d="M11.7784392,13.9119882 L13.2335655,13.9119882 C13.2335655,13.9119882 13.6701034,13.8379883 13.8883724,13.6159885 C14.1066413,13.3939887 14.1066413,12.9499891 14.1066413,12.9499891 C14.1066413,12.9499891 14.1066413,11.0259907 14.9797171,10.7299909 C15.8527929,10.4339912 17.016894,12.6539893 18.1809951,13.4679886 C19.0540708,14.1339881 19.7088777,13.9859882 19.7088777,13.9859882 L22.9101556,13.9119882 C22.9101556,13.9119882 24.5835509,13.8379883 23.7832314,12.4319895 C23.7104751,12.3579896 23.3466935,11.4699903 21.382273,9.61999187 C19.3450961,7.69599349 19.6361214,8.06599318 22.0370798,4.735996 C23.4922061,2.73799769 24.0742567,1.55399869 23.928744,0.961999187 C23.7832314,0.443999625 22.6918867,0.5919995 22.6918867,0.5919995 L19.0540708,0.5919995 C19.0540708,0.5919995 18.7630456,0.517999562 18.617533,0.665999437 C18.399264,0.813999312 18.3265077,1.03599912 18.3265077,1.03599912 C18.3265077,1.03599912 17.7444572,2.58999781 17.016894,3.92199668 C15.416255,6.65999437 14.7614482,6.80799425 14.5431792,6.65999437 C13.9611287,6.28999468 14.1066413,5.03199575 14.1066413,4.21799643 C14.1066413,1.55399869 14.5431792,0.443999625 13.3063219,0.147999875 C12.9425403,0.0739999374 12.651515,0 11.6329266,0 C10.3233129,0 9.23196814,0 8.64991761,0.29599975 C8.21337971,0.517999562 7.92235445,0.961999187 8.1406234,0.961999187 C8.35889235,0.961999187 8.94094288,1.10999906 9.23196814,1.47999875 C9.52299341,2.14599819 9.52299341,3.25599725 9.52299341,3.25599725 C9.52299341,3.25599725 9.74126236,6.43799456 9.01369919,6.80799425 C8.50440498,7.10399399 7.84959813,6.5119945 6.3944718,3.99599662 C5.66690864,2.73799769 5.08485811,1.25799894 5.08485811,1.25799894 C5.08485811,1.25799894 5.01210179,0.961999187 4.79383284,0.813999312 C4.5755639,0.665999437 4.21178231,0.5919995 4.21178231,0.5919995 L0.792235445,0.5919995 C0.792235445,0.5919995 0.28294123,0.5919995 0.0646722812,0.813999312 C-0.0808403515,1.03599912 0.0646722812,1.40599881 0.0646722812,1.40599881 C0.0646722812,1.40599881 2.75665599,7.76999343 5.81242127,11.0259907 C8.64991761,14.1339881 11.7784392,13.9119882 11.7784392,13.9119882 Z" class="Icon-Path" transform="translate(0 6)"/>
    </g>
  </g>
</svg>
