<?xml version="1.0" standalone="no"?>
<!DOCTYPE svg PUBLIC "-//W3C//DTD SVG 20010904//EN"
 "http://www.w3.org/TR/2001/REC-SVG-20010904/DTD/svg10.dtd">
<svg version="1.0" xmlns="http://www.w3.org/2000/svg"
 width="271.000000pt" height="271.000000pt" viewBox="0 0 271.000000 271.000000"
 preserveAspectRatio="xMidYMid meet">
<metadata>
Created by potrace 1.11, written by Peter Selinger 2001-2013
</metadata>
<g transform="translate(0.000000,271.000000) scale(0.100000,-0.100000)"
fill="#000000" stroke="none">
<path d="M1691 2599 c-120 -23 -253 -123 -314 -236 -29 -54 -58 -170 -52 -204
3 -14 -7 -26 -33 -43 -20 -13 -199 -124 -397 -247 -198 -122 -409 -253 -468
-290 -60 -37 -104 -70 -99 -73 8 -5 96 48 706 428 148 92 274 168 280 169 6 1
10 -25 11 -66 1 -79 27 -55 -245 -222 -217 -134 -754 -467 -758 -470 -2 -2 1
-6 6 -9 5 -3 29 7 53 23 24 16 157 98 294 183 138 85 338 210 446 276 108 67
198 122 201 122 9 0 1 -141 -8 -149 -5 -5 -225 -142 -489 -306 -264 -163 -487
-303 -495 -311 -37 -36 21 -6 171 87 161 100 515 320 716 445 56 35 103 64
105 64 2 0 3 -30 3 -67 l0 -68 -241 -150 c-132 -82 -353 -219 -490 -304 -251
-155 -289 -181 -266 -181 11 0 173 99 616 376 88 54 174 108 192 119 18 11 67
41 108 67 42 25 77 43 79 40 3 -6 1 -105 -2 -123 0 -3 -47 -34 -103 -69 -57
-35 -159 -99 -226 -142 -68 -43 -126 -78 -128 -78 -2 0 -46 -26 -96 -59 -51
-32 -170 -106 -265 -165 -95 -59 -175 -112 -179 -118 -13 -20 25 0 156 81 69
43 211 131 315 195 105 65 201 125 215 135 14 9 69 44 123 76 54 33 117 72
140 87 23 14 44 27 47 27 4 1 5 -100 1 -136 0 -6 -61 -49 -133 -94 -383 -237
-506 -314 -538 -334 -19 -13 -99 -62 -177 -111 -126 -77 -161 -104 -136 -104
4 0 23 11 42 24 39 26 942 586 945 586 1 0 2 -29 1 -65 0 -43 -6 -69 -15 -79
-8 -7 -94 -62 -190 -121 -501 -308 -802 -499 -791 -503 6 -2 133 72 281 165
312 194 303 189 367 227 26 16 114 71 195 122 82 51 149 89 151 86 2 -4 3 -36
2 -72 l0 -65 -136 -85 c-75 -47 -199 -124 -275 -171 -76 -47 -236 -146 -354
-219 -118 -73 -222 -139 -230 -146 -46 -43 45 9 357 202 565 352 615 382 628
380 5 0 10 -30 10 -65 0 -63 0 -64 -40 -93 -22 -16 -62 -43 -90 -59 -27 -16
-59 -35 -69 -42 -124 -77 -545 -338 -735 -455 -41 -25 -69 -48 -63 -50 7 -2
45 16 85 41 39 25 258 160 485 301 227 141 417 256 421 256 7 0 8 -127 0 -133
-4 -3 -312 -194 -782 -484 -119 -74 -215 -139 -212 -143 3 -5 40 13 83 39 42
27 228 142 412 256 184 114 351 217 370 230 19 12 59 37 89 55 l53 33 44 -23
c24 -14 40 -28 36 -32 -6 -6 -213 -136 -467 -293 -333 -206 -415 -258 -415
-266 0 -14 6 -12 67 28 32 21 67 43 78 49 11 6 112 69 225 139 113 70 224 140
247 154 139 86 174 108 232 144 l63 41 44 -23 c24 -13 44 -27 44 -30 0 -3 -49
-36 -108 -72 -521 -321 -681 -422 -677 -430 3 -5 27 5 53 21 77 49 648 402
707 438 l55 33 47 -24 47 -24 -74 -48 c-41 -27 -192 -120 -335 -208 -257 -158
-293 -182 -284 -191 2 -3 63 31 134 76 72 44 189 116 260 160 136 84 163 101
258 161 l57 37 47 -23 47 -24 -25 -15 c-13 -9 -121 -75 -239 -148 -310 -191
-340 -211 -335 -220 3 -5 81 39 173 97 92 58 183 115 202 125 19 11 64 39 100
62 36 23 83 52 106 65 l40 23 37 -22 37 -22 -117 -74 c-65 -41 -175 -109 -245
-152 -114 -69 -145 -92 -120 -92 4 0 119 69 257 154 l249 154 43 -22 c23 -11
43 -24 43 -27 0 -3 -85 -59 -190 -125 -169 -106 -208 -135 -182 -134 4 0 95
56 202 124 l195 124 47 -26 c42 -22 46 -26 30 -37 -9 -6 -74 -46 -144 -90 -70
-43 -125 -82 -122 -86 3 -5 42 15 87 43 234 147 209 136 260 111 l42 -20 -60
-38 c-33 -20 -80 -50 -104 -65 -23 -15 -39 -30 -34 -33 5 -3 55 23 111 58
l102 64 35 -16 c19 -9 35 -19 35 -22 0 -3 -24 -22 -54 -41 -30 -19 -52 -38
-50 -42 3 -4 33 10 68 32 37 23 70 38 79 34 14 -5 15 104 13 1078 -3 1169 1
1091 -55 1197 -48 92 -149 176 -262 217 -50 18 -257 26 -328 13z"/>
<path d="M845 2581 c-16 -10 -109 -67 -205 -127 -96 -60 -182 -113 -192 -119
-9 -5 -42 -25 -73 -43 -31 -18 -53 -37 -50 -42 3 -5 90 43 193 107 103 64 229
141 280 172 50 31 92 59 92 63 0 12 -13 9 -45 -11z"/>
<path d="M552 2527 c-56 -34 -101 -68 -102 -74 0 -12 44 12 173 95 26 16 44
33 39 36 -4 3 -54 -23 -110 -57z"/>
<path d="M975 2531 c-33 -21 -193 -121 -355 -221 -336 -208 -304 -186 -293
-193 7 -5 208 116 656 396 37 23 67 45 67 49 0 14 -13 8 -75 -31z"/>
<path d="M1040 2434 c-58 -37 -132 -83 -165 -103 -359 -221 -554 -345 -549
-352 3 -5 24 3 47 18 23 15 161 101 307 191 146 91 303 189 350 219 47 29 95
57 108 63 21 9 31 30 15 30 -5 0 -55 -30 -113 -66z"/>
<path d="M1153 2342 c-51 -31 -137 -84 -190 -118 -54 -33 -165 -102 -248 -153
-82 -51 -192 -119 -244 -152 -51 -32 -96 -59 -100 -59 -5 0 -16 -9 -26 -20
-35 -39 6 -19 177 88 95 60 292 182 438 272 263 162 298 185 289 194 -2 2 -46
-21 -96 -52z"/>
<path d="M1250 2250 c-25 -16 -63 -40 -85 -53 -80 -48 -471 -290 -520 -322
-27 -18 -112 -71 -188 -118 -76 -47 -134 -87 -129 -91 5 -3 155 86 334 197
179 111 398 247 487 302 141 88 181 117 154 114 -5 0 -28 -13 -53 -29z"/>
</g>
</svg>
