<svg xmlns="http://www.w3.org/2000/svg" version="1.1" viewBox="0 0 24 24">
  <g fill="none" fill-rule="evenodd" stroke="none" stroke-width="1" class="Icons/24px/Youtube">
    <g fill="#F5F4EA" fill-opacity="0.75" class="youtube">
      <path d="M23.4991071,2.49936306 C23.2210653,1.51440946 22.4128473,0.744687981 21.3776786,0.478980892 C19.5053571,0 12,0 12,0 C12,0 4.49464286,0 2.62232143,0.476433121 C1.58663859,0.741295165 0.778045653,1.51137377 0.500892857,2.49681529 C0,4.28025478 0,8 0,8 C0,8 0,11.7197452 0.500892857,13.5006369 C0.776785714,14.4840764 1.59107143,15.2585987 2.62232143,15.5210191 C4.49464286,16 12,16 12,16 C12,16 19.5053571,16 21.3776786,15.5210191 C22.4116071,15.2585987 23.2232143,14.4840764 23.4991071,13.5006369 C24,11.7197452 24,8 24,8 C24,8 24,4.28025478 23.4991071,2.49936306 Z M9,11 L9,5 L16,7.97761194 L9,11 Z" class="Icon-Shape" transform="translate(0 4)"/>
    </g>
  </g>
</svg>
