<svg xmlns="http://www.w3.org/2000/svg" width="30" height="30" version="1.1" viewBox="0 0 30 30">
  <g fill="none" fill-rule="evenodd" stroke="none" stroke-width="1" class="Icons/30px/Cube">
    <g fill="#F5F4EA" fill-rule="nonzero" class="3dmapping">
      <path d="M23.6057692 4.89783654L12.8425481.0721153846C12.6262019-.0240384615 12.3798077-.0240384615 12.1634615.0721153846L1.39423077 4.89783654C1.03365385 5.06009615 1.02163462 5.60697115 1.37019231 5.78725962L12.109375 11.4423077C12.3557692 11.5745192 12.6442308 11.5745192 12.890625 11.4423077L23.6298077 5.78725962C23.9783654 5.60697115 23.9663462 5.06009615 23.6057692 4.89783654zM13.9543269 24.9338942L24.7776442 19.2067308C24.9098558 19.1225962 24.9939904 18.9663462 24.9939904 18.7980769L24.9939904 7.68629808C24.9939904 7.33173077 24.6454327 7.10336538 24.3509615 7.25961538L13.5276442 12.8365385C13.3713942 12.9146635 13.2752404 13.0829327 13.2752404 13.2632212L13.2752404 24.5192308C13.28125 24.8918269 13.6598558 25.1201923 13.9543269 24.9338942L13.9543269 24.9338942zM8.54017711e-16 7.68629808L8.54017711e-16 18.7920673C8.54017711e-16 18.9603365.0841346154 19.1165865.216346154 19.2007212L11.0396635 24.9278846C11.3401442 25.1201923 11.7127404 24.8918269 11.7127404 24.5192308L11.7127404 13.2632212C11.7127404 13.0829327 11.6165865 12.9146635 11.4603365 12.8365385L.643028846 7.25961538C.348557692 7.10336538 0 7.33774038 8.54017711e-16 7.68629808z" class="Icon-Path" transform="translate(3 3)"/>
    </g>
  </g>
</svg>
